<svg width="112" height="32" viewBox="0 0 112 32" fill="none" xmlns="http://www.w3.org/2000/svg">
<rect width="112" height="32" fill="white"/>
<line x1="6.92188" y1="11.9268" x2="6.92187" y2="27.7836" stroke="#888888"/>
<line x1="44.0352" y1="11.9268" x2="44.0352" y2="27.7836" stroke="#888888"/>
<line x1="81.1484" y1="11.9268" x2="81.1484" y2="27.7836" stroke="#888888"/>
<line x1="14.3398" y1="11.9268" x2="14.3398" y2="27.7836" stroke="#888888"/>
<line x1="51.4551" y1="11.9268" x2="51.4551" y2="27.7836" stroke="#888888"/>
<line x1="88.5703" y1="11.9268" x2="88.5703" y2="27.7836" stroke="#888888"/>
<line x1="21.7637" y1="11.9268" x2="21.7637" y2="27.7836" stroke="#888888"/>
<line x1="58.8789" y1="11.9268" x2="58.8789" y2="27.7836" stroke="#888888"/>
<line x1="95.9922" y1="11.9268" x2="95.9922" y2="27.7836" stroke="#888888"/>
<line x1="29.1895" y1="11.9268" x2="29.1895" y2="27.7836" stroke="#888888"/>
<line x1="66.3027" y1="11.9268" x2="66.3027" y2="27.7836" stroke="#888888"/>
<line x1="103.416" y1="11.9268" x2="103.416" y2="27.7836" stroke="#888888"/>
<line x1="36.6094" y1="4" x2="36.6094" y2="27.7853" stroke="#484848"/>
<line x1="73.7246" y1="4" x2="73.7246" y2="27.7853" stroke="#484848"/>
<line x1="110.838" y1="4" x2="110.838" y2="27.7853" stroke="#484848"/>
</svg>
