<svg width="120" height="18" viewBox="0 0 120 18" fill="none" xmlns="http://www.w3.org/2000/svg">
<g clip-path="url(#clip0_106_162)">
<line x1="12.5" y1="6" x2="12.5" y2="18" stroke="#888888"/>
<line x1="6.5" y1="6" x2="6.5" y2="18" stroke="#888888"/>
<line x1="18.5" y1="6" x2="18.5" y2="18" stroke="#888888"/>
<line x1="30.5" y1="3" x2="30.5" y2="18" stroke="#888888"/>
<line x1="42.5" y1="6" x2="42.5" y2="18" stroke="#888888"/>
<line x1="54.5" y1="6" x2="54.5" y2="18" stroke="#888888"/>
<line x1="66.5" y1="6" x2="66.5" y2="18" stroke="#888888"/>
<line x1="78.5" y1="6" x2="78.5" y2="18" stroke="#888888"/>
<line x1="90.5" y1="3" x2="90.5" y2="18" stroke="#888888"/>
<line x1="102.5" y1="6" x2="102.5" y2="18" stroke="#888888"/>
<line x1="114.5" y1="6" x2="114.5" y2="18" stroke="#888888"/>
<line x1="24.5" y1="6" x2="24.5" y2="18" stroke="#888888"/>
<line x1="36.5" y1="6" x2="36.5" y2="18" stroke="#888888"/>
<line x1="48.5" y1="6" x2="48.5" y2="18" stroke="#888888"/>
<line x1="72.5" y1="6" x2="72.5" y2="18" stroke="#888888"/>
<line x1="84.5" y1="6" x2="84.5" y2="18" stroke="#888888"/>
<line x1="96.5" y1="6" x2="96.5" y2="18" stroke="#888888"/>
<line x1="108.5" y1="6" x2="108.5" y2="18" stroke="#888888"/>
<line x1="0.5" y1="-5.18719e-08" x2="0.5" y2="18" stroke="#484848"/>
<line x1="60.5" y1="-5.18719e-08" x2="60.5" y2="18" stroke="#484848"/>
</g>
<defs>
<clipPath id="clip0_106_162">
<rect width="120" height="18" fill="white"/>
</clipPath>
</defs>
</svg>
